# xmcd
#
# Track frame offsets: 
#        150
#        20094
#        43939
#        65402
#        79017
#        100073
#        118523
#        136851
#        154621
#        185903
#
# Disc length: 2715 seconds
#
# Revision: 0
# Processed by: cddbd v1.5.2PL0 Copyright (c) Steve Scherf et al.
# Submitted via: ExactAudioCopyFreeDBPlugin 1.0
#
DISCID=830a990a
DTITLE=Adam Lomania - Adam Lomania
DYEAR=1999
DGENRE=Blues-Rock
TTITLE0=Daleko stąd
TTITLE1=Życie
TTITLE2=Nigdy
TTITLE3=Song na Kaca
TTITLE4=Jak Nigdy Dotąd
TTITLE5=Mama
TTITLE6=Droga
TTITLE7=Janou
TTITLE8=Wolny Tak
TTITLE9=Wokół Tyle Brudnych Spraw
EXTD=
EXTT0=
EXTT1=
EXTT2=
EXTT3=
EXTT4=
EXTT5=
EXTT6=
EXTT7=
EXTT8=
EXTT9=
PLAYORDER=
